<svg width="236" height="34" viewBox="0 0 236 34" fill="none" xmlns="http://www.w3.org/2000/svg">
<g clip-path="url(#clip0_204_245)">
<path d="M64.1003 26.9399C68.9426 26.9399 72.8476 24.1825 74.2059 19.7727H67.5894C66.951 20.9032 65.6538 21.5849 64.1003 21.5849C62.0001 21.5849 60.5943 20.4391 60.1613 18.2223H74.4911C74.5777 17.6239 74.6286 17.0425 74.6286 16.4594C74.6286 10.7899 70.3212 6.3444 64.1003 6.3444C58.0424 6.3444 53.6161 10.7032 53.6161 16.6277C53.6161 22.5318 58.0781 26.9399 64.1003 26.9399ZM68.0801 14.535H60.2768C60.815 12.6157 62.1614 11.5617 64.1003 11.5617C66.1055 11.5617 67.496 12.6021 68.0801 14.535ZM86.6646 26.9382C88.9058 26.9382 90.9092 26.2004 92.4882 24.9186L93.0587 26.2854H98.1981V6.9581H93.2421L92.5629 8.4541C90.967 7.1366 88.938 6.3767 86.6646 6.3767C80.7629 6.3767 76.5438 10.6352 76.5438 16.6209C76.5438 22.627 80.7629 26.9399 86.6646 26.9399V26.9382ZM87.5543 21.0443C85.0636 21.0443 83.2333 19.1607 83.2333 16.6362C83.2333 14.1287 85.0483 12.2451 87.5543 12.2451C90.0433 12.2451 91.8736 14.1287 91.8736 16.6362C91.8736 19.1607 90.0433 21.0443 87.5543 21.0443ZM109.835 26.9382C114.963 26.9382 118.367 24.2964 118.367 20.2572C118.367 15.3561 114.314 14.722 111.265 14.1797C109.431 13.8516 107.954 13.5949 107.954 12.4967C107.954 11.6008 108.67 11.0721 109.737 11.0721C110.942 11.0721 111.769 11.645 111.769 12.8792H117.995C117.92 8.9641 114.735 6.3461 109.818 6.3461C104.874 6.3461 101.577 8.8451 101.577 12.7211C101.577 17.408 105.545 18.3124 108.538 18.7969C110.392 19.1046 111.852 19.4225 111.852 20.5377C111.852 21.5356 110.93 22.0337 109.957 22.0337C108.698 22.0337 107.716 21.3826 107.716 19.9699H101.315C101.376 24.157 104.573 26.9399 109.835 26.9399V26.9382ZM123.588 33.4968C128.572 33.4968 130.963 31.3599 133.566 25.4456L141.654 6.9785H134.513L130.695 17.6256L126.6 6.9785H119.375L127.352 24.7095C126.452 27.1133 125.683 27.7763 123.141 27.7763H121.311V33.4968H123.588ZM155.004 26.9382C160.947 26.9382 165.146 22.6627 165.146 16.6566C165.146 10.6505 160.949 6.375 155.004 6.375C153.313 6.36179 151.651 6.82351 150.208 7.7078V0H143.637V26.3058H148.556L149.184 24.871C150.751 26.1817 152.753 26.9382 155.004 26.9382ZM154.116 21.0443C151.626 21.0443 149.795 19.1607 149.795 16.6583C149.795 14.1321 151.626 12.2485 154.116 12.2485C156.606 12.2485 158.436 14.1321 158.436 16.6566C158.436 19.1607 156.59 21.0443 154.116 21.0443ZM177.204 26.9382C179.445 26.9382 181.448 26.2004 183.027 24.9186L183.598 26.2854H188.737V6.9581H183.783L183.102 8.4541C181.508 7.1366 179.477 6.3767 177.204 6.3767C171.302 6.3767 167.085 10.6352 167.085 16.6209C167.085 22.627 171.302 26.9399 177.204 26.9399V26.9382ZM178.093 21.0443C175.603 21.0443 173.772 19.1607 173.772 16.6362C173.772 14.1287 175.589 12.2451 178.093 12.2451C180.584 12.2451 182.414 14.1287 182.414 16.6362C182.414 19.1607 180.584 21.0443 178.093 21.0443ZM199.576 26.3058V15.9851C199.576 13.5252 200.768 12.0751 202.841 12.0751C204.515 12.0751 205.359 13.192 205.359 15.4411V26.3041H212.006V14.5231C212.006 9.5982 209.064 6.409 204.581 6.409C202.086 6.409 199.941 7.3695 198.503 8.9726L197.591 6.9802H192.927V26.3075H199.576V26.3058ZM222.918 26.3058V18.1322L227.754 26.3058H235.591L228.966 16.1908L234.981 6.9785H227.516L222.918 14.5503V0H216.269V26.3058H222.918Z" fill="white"/>
<path fill-rule="evenodd" clip-rule="evenodd" d="M18.3401 0L0 33.4968H10.1633L28.5051 0H18.3401Z" fill="url(#paint0_linear_204_245)"/>
<path opacity="0.5" fill-rule="evenodd" clip-rule="evenodd" d="M30.8515 0L12.5097 33.4968H22.673L41.0148 0H30.8515Z" fill="url(#paint1_linear_204_245)"/>
<path opacity="0.15" fill-rule="evenodd" clip-rule="evenodd" d="M43.3612 0L25.0211 33.4968H35.1844L53.5245 0H43.3612Z" fill="url(#paint2_linear_204_245)"/>
</g>
<defs>
<linearGradient id="paint0_linear_204_245" x1="2057.92" y1="-0.000194291" x2="78.6831" y2="3079.59" gradientUnits="userSpaceOnUse">
<stop stop-color="#33D35E"/>
<stop offset="1" stop-color="#2AB6D9"/>
</linearGradient>
<linearGradient id="paint1_linear_204_245" x1="2070.43" y1="-0.000194291" x2="91.1928" y2="3079.59" gradientUnits="userSpaceOnUse">
<stop stop-color="#33D35E"/>
<stop offset="1" stop-color="#2AB6D9"/>
</linearGradient>
<linearGradient id="paint2_linear_204_245" x1="2082.82" y1="-0.000194291" x2="103.533" y2="3079.49" gradientUnits="userSpaceOnUse">
<stop stop-color="#33D35E"/>
<stop offset="1" stop-color="#2AB6D9"/>
</linearGradient>
<clipPath id="clip0_204_245">
<rect width="236" height="34" fill="white"/>
</clipPath>
</defs>
</svg>
